 <svg
      width="100%"
      height="100%"
      viewBox="0 0 1680 359"
      fill="none"
      preserveAspectRatio="none"
      xmlns="http://www.w3.org/2000/svg">
      <g
        id="wave-6 1" clip-path="url(#clip0_0_1)"
      >
        <path
          id="Vector"
          d="M0 71.8L28 77.7459C56 84.1406 112 95.3594 168 95.6959C224 95.3594 280 84.1406 336 77.7459C392 71.8 448 71.8 504 59.7959C560 48.2406 616 23.5594 672 53.85C728 84.1406 784 167.159 840 197.45C896 227.741 952 203.059 1008 197.45C1064 191.841 1120 203.059 1176 173.554C1232 143.6 1288 71.8 1344 47.9041C1400 23.5594 1456 48.2406 1512 95.6959C1568 143.6 1624 215.4 1680 251.3C1736 287.2 1792 287.2 1848 281.254C1904 274.859 1960 263.641 2016 233.35C2072 203.059 2128 155.941 2184 167.496C2240 179.5 2296 251.3 2352 251.3C2408 251.3 2464 179.5 2520 137.654C2576 95.3594 2632 84.1406 2688 77.7459C2744 71.8 2800 71.8 2856 59.7959C2912 48.2406 2968 23.5594 3024 47.9041C3080 71.8 3136 143.6 3192 143.6C3248 143.6 3304 71.8 3360 35.9C3416 5.09998e-06 3472 5.09998e-06 3528 12.0041C3584 23.5594 3640 48.2406 3696 89.75C3752 131.259 3808 191.841 3864 197.45C3920 203.059 3976 155.941 4004 131.596L4032 107.7V359H4004C3976 359 3920 359 3864 359C3808 359 3752 359 3696 359C3640 359 3584 359 3528 359C3472 359 3416 359 3360 359C3304 359 3248 359 3192 359C3136 359 3080 359 3024 359C2968 359 2912 359 2856 359C2800 359 2744 359 2688 359C2632 359 2576 359 2520 359C2464 359 2408 359 2352 359C2296 359 2240 359 2184 359C2128 359 2072 359 2016 359C1960 359 1904 359 1848 359C1792 359 1736 359 1680 359C1624 359 1568 359 1512 359C1456 359 1400 359 1344 359C1288 359 1232 359 1176 359C1120 359 1064 359 1008 359C952 359 896 359 840 359C784 359 728 359 672 359C616 359 560 359 504 359C448 359 392 359 336 359C280 359 224 359 168 359C112 359 56 359 28 359H0V71.8Z"
          fill="url(#paint0_linear_0_1)">

        </path>
        <!-- <path
          id="Vector_2"
          d="M0 107.7L28 137.654C56 167.159 112 227.741 168 221.346C224 215.4 280 143.6 336 131.596C392 120.041 448 167.159 504 191.504C560 215.4 616 215.4 672 185.446C728 155.941 784 95.3594 840 89.75C896 84.1406 952 131.259 1008 149.546C1064 167.159 1120 155.941 1176 161.55C1232 167.159 1288 191.841 1344 197.45C1400 203.059 1456 191.841 1512 203.396C1568 215.4 1624 251.3 1680 245.354C1736 238.959 1792 191.841 1848 173.554C1904 155.941 1960 167.159 2016 191.504C2072 215.4 2128 251.3 2184 221.346C2240 191.841 2296 95.3594 2352 89.75C2408 84.1406 2464 167.159 2520 209.454C2576 251.3 2632 251.3 2688 251.3C2744 251.3 2800 251.3 2856 227.404C2912 203.059 2968 155.941 3024 149.546C3080 143.6 3136 179.5 3192 185.446C3248 191.841 3304 167.159 3360 185.446C3416 203.059 3472 263.641 3528 257.246C3584 251.3 3640 179.5 3696 149.546C3752 120.041 3808 131.259 3864 143.6C3920 155.941 3976 167.159 4004 173.554L4032 179.5V359H4004C3976 359 3920 359 3864 359C3808 359 3752 359 3696 359C3640 359 3584 359 3528 359C3472 359 3416 359 3360 359C3304 359 3248 359 3192 359C3136 359 3080 359 3024 359C2968 359 2912 359 2856 359C2800 359 2744 359 2688 359C2632 359 2576 359 2520 359C2464 359 2408 359 2352 359C2296 359 2240 359 2184 359C2128 359 2072 359 2016 359C1960 359 1904 359 1848 359C1792 359 1736 359 1680 359C1624 359 1568 359 1512 359C1456 359 1400 359 1344 359C1288 359 1232 359 1176 359C1120 359 1064 359 1008 359C952 359 896 359 840 359C784 359 728 359 672 359C616 359 560 359 504 359C448 359 392 359 336 359C280 359 224 359 168 359C112 359 56 359 28 359H0V107.7Z"
          fill="url(#paint1_linear_0_1)">
          
        </path> -->
        <path
          id="Vector_3"
          d="M0 323.1L28 317.154C56 310.759 112 299.541 168 287.2C224 274.859 280 263.641 336 239.296C392 215.4 448 179.5 504 173.554C560 167.159 616 191.841 672 179.5C728 167.159 784 120.041 840 137.654C896 155.941 952 238.959 1008 281.254C1064 323.1 1120 323.1 1176 275.196C1232 227.741 1288 131.259 1344 119.704C1400 107.7 1456 179.5 1512 221.346C1568 263.641 1624 274.859 1680 245.354C1736 215.4 1792 143.6 1848 149.546C1904 155.941 1960 238.959 2016 227.404C2072 215.4 2128 107.7 2184 95.6959C2240 84.1406 2296 167.159 2352 179.5C2408 191.841 2464 131.259 2520 89.75C2576 48.2406 2632 23.5594 2688 65.8541C2744 107.7 2800 215.4 2856 227.404C2912 238.959 2968 155.941 3024 119.704C3080 84.1406 3136 95.3594 3192 131.596C3248 167.159 3304 227.741 3360 257.246C3416 287.2 3472 287.2 3528 251.3C3584 215.4 3640 143.6 3696 119.704C3752 95.3594 3808 120.041 3864 107.7C3920 95.3594 3976 48.2406 4004 23.8959L4032 0V359H4004C3976 359 3920 359 3864 359C3808 359 3752 359 3696 359C3640 359 3584 359 3528 359C3472 359 3416 359 3360 359C3304 359 3248 359 3192 359C3136 359 3080 359 3024 359C2968 359 2912 359 2856 359C2800 359 2744 359 2688 359C2632 359 2576 359 2520 359C2464 359 2408 359 2352 359C2296 359 2240 359 2184 359C2128 359 2072 359 2016 359C1960 359 1904 359 1848 359C1792 359 1736 359 1680 359C1624 359 1568 359 1512 359C1456 359 1400 359 1344 359C1288 359 1232 359 1176 359C1120 359 1064 359 1008 359C952 359 896 359 840 359C784 359 728 359 672 359C616 359 560 359 504 359C448 359 392 359 336 359C280 359 224 359 168 359C112 359 56 359 28 359H0V323.1Z"
          fill="url(#paint2_linear_0_1)">

        </path>
        <path
          id="Vector_4"
          d="M0 143.6L28 119.704C56 95.3594 112 48.2406 168 35.9C224 23.5594 280 48.2406 336 59.7959C392 71.8 448 71.8 504 107.7C560 143.6 616 215.4 672 257.246C728 299.541 784 310.759 840 287.2C896 263.641 952 203.059 1008 173.554C1064 143.6 1120 143.6 1176 143.6C1232 143.6 1288 143.6 1344 155.604C1400 167.159 1456 191.841 1512 215.4C1568 238.959 1624 263.641 1680 227.404C1736 191.841 1792 95.3594 1848 65.8541C1904 35.9 1960 71.8 2016 83.8041C2072 95.3594 2128 84.1406 2184 71.8C2240 59.4594 2296 48.2406 2352 71.8C2408 95.3594 2464 155.941 2520 161.55C2576 167.159 2632 120.041 2688 95.6959C2744 71.8 2800 71.8 2856 59.7959C2912 48.2406 2968 23.5594 3024 47.9041C3080 71.8 3136 143.6 3192 173.554C3248 203.059 3304 191.841 3360 197.45C3416 203.059 3472 227.741 3528 215.4C3584 203.059 3640 155.941 3696 119.704C3752 84.1406 3808 59.4594 3864 65.8541C3920 71.8 3976 107.7 4004 125.65L4032 143.6V359H4004C3976 359 3920 359 3864 359C3808 359 3752 359 3696 359C3640 359 3584 359 3528 359C3472 359 3416 359 3360 359C3304 359 3248 359 3192 359C3136 359 3080 359 3024 359C2968 359 2912 359 2856 359C2800 359 2744 359 2688 359C2632 359 2576 359 2520 359C2464 359 2408 359 2352 359C2296 359 2240 359 2184 359C2128 359 2072 359 2016 359C1960 359 1904 359 1848 359C1792 359 1736 359 1680 359C1624 359 1568 359 1512 359C1456 359 1400 359 1344 359C1288 359 1232 359 1176 359C1120 359 1064 359 1008 359C952 359 896 359 840 359C784 359 728 359 672 359C616 359 560 359 504 359C448 359 392 359 336 359C280 359 224 359 168 359C112 359 56 359 28 359H0V143.6Z"
          fill="url(#paint3_linear_0_1)">

        </path>
      </g>
      <defs>
      
        <linearGradient
          id="paint0_linear_0_1"
          x1="0"
          y1="359"
          x2="0"
          y2="4.81921"
          gradientUnits="userSpaceOnUse">
          <stop stop-color="#430087" stop-opacity="0.09" />
          <stop offset="1" stop-color="#020D73" />
        </linearGradient>
        <linearGradient
          id="paint1_linear_0_1"
          x1="0"
          y1="359"
          x2="0"
          y2="89.2893"
          gradientUnits="userSpaceOnUse">
          <stop stop-color="#430087" stop-opacity="0.09" />
          <stop offset="1" stop-color="#020D73" />
        </linearGradient>
        <linearGradient
          id="paint2_linear_0_1"
          x1="0"
          y1="359"
          x2="0"
          y2="0"
          gradientUnits="userSpaceOnUse">
          <stop stop-color="#430087" stop-opacity="0.09" />
          <stop offset="1" stop-color="#020D73" />
        </linearGradient>
        <linearGradient
          id="paint3_linear_0_1"
          x1="0"
          y1="359"
          x2="0"
          y2="32.5312"
          gradientUnits="userSpaceOnUse">
          <stop stop-color="#430087" stop-opacity="0.09" />
          <stop offset="1" stop-color="#020D73" />
        </linearGradient>
      </defs>
    </svg>