 <svg
      width="100%"
      height="100%"
      viewBox="0 0 1680 359"
      fill="none"
      preserveAspectRatio="none"
      xmlns="http://www.w3.org/2000/svg">
            <defs>

      </defs>
      <g
        id="wave-6 1"
      >
        <path
          id="Vector"
          d="M0 71.8L28 77.7459C56 84.1406 112 95.3594 168 95.6959C224 95.3594 280 84.1406 336 77.7459C392 71.8 448 71.8 504 59.7959C560 48.2406 616 23.5594 672 53.85C728 84.1406 784 167.159 840 197.45C896 227.741 952 203.059 1008 197.45C1064 191.841 1120 203.059 1176 173.554C1232 143.6 1288 71.8 1344 47.9041C1400 23.5594 1456 48.2406 1512 95.6959C1568 143.6 1624 215.4 1680 251.3C1736 287.2 1792 287.2 1848 281.254C1904 274.859 1960 263.641 2016 233.35C2072 203.059 2128 155.941 2184 167.496C2240 179.5 2296 251.3 2352 251.3C2408 251.3 2464 179.5 2520 137.654C2576 95.3594 2632 84.1406 2688 77.7459C2744 71.8 2800 71.8 2856 59.7959C2912 48.2406 2968 23.5594 3024 47.9041C3080 71.8 3136 143.6 3192 143.6C3248 143.6 3304 71.8 3360 35.9C3416 5.09998e-06 3472 5.09998e-06 3528 12.0041C3584 23.5594 3640 48.2406 3696 89.75C3752 131.259 3808 191.841 3864 197.45C3920 203.059 3976 155.941 4004 131.596L4032 107.7V359H4004C3976 359 3920 359 3864 359C3808 359 3752 359 3696 359C3640 359 3584 359 3528 359C3472 359 3416 359 3360 359C3304 359 3248 359 3192 359C3136 359 3080 359 3024 359C2968 359 2912 359 2856 359C2800 359 2744 359 2688 359C2632 359 2576 359 2520 359C2464 359 2408 359 2352 359C2296 359 2240 359 2184 359C2128 359 2072 359 2016 359C1960 359 1904 359 1848 359C1792 359 1736 359 1680 359C1624 359 1568 359 1512 359C1456 359 1400 359 1344 359C1288 359 1232 359 1176 359C1120 359 1064 359 1008 359C952 359 896 359 840 359C784 359 728 359 672 359C616 359 560 359 504 359C448 359 392 359 336 359C280 359 224 359 168 359C112 359 56 359 28 359H0V71.8Z"
          fill="#430087" opacity="0.7">
          <animate
            repeatCount="indefinite"
            attributeName="d"
            dur="8s"
            values="
                M0 179.5L28 155.604C56 131.259 112 84.1406 168 101.754C224 120.041 280 203.059 336 221.346C392 238.959 448 191.841 504 191.504C560 191.841 616 238.959 672 245.354C728 251.3 784 215.4 840 209.454C896 203.059 952 227.741 1008 209.454C1064 191.841 1120 131.259 1176 89.75C1232 48.2406 1288 23.5594 1344 53.85C1400 84.1406 1456 167.159 1512 191.504C1568 215.4 1624 179.5 1680 143.6C1736 107.7 1792 71.8 1848 95.6959C1904 120.041 1960 203.059 2016 227.404C2072 251.3 2128 215.4 2184 191.504C2240 167.159 2296 155.941 2352 137.654C2408 120.041 2464 95.3594 2520 107.7C2576 120.041 2632 167.159 2688 185.446C2744 203.059 2800 191.841 2856 185.446C2912 179.5 2968 179.5 3024 149.546C3080 120.041 3136 59.4594 3192 59.7959C3248 59.4594 3304 120.041 3360 131.596C3416 143.6 3472 107.7 3528 107.7C3584 107.7 3640 143.6 3696 155.604C3752 167.159 3808 155.941 3864 173.554C3920 191.841 3976 238.959 4004 263.304L4032 287.2V359H4004C3976 359 3920 359 3864 359C3808 359 3752 359 3696 359C3640 359 3584 359 3528 359C3472 359 3416 359 3360 359C3304 359 3248 359 3192 359C3136 359 3080 359 3024 359C2968 359 2912 359 2856 359C2800 359 2744 359 2688 359C2632 359 2576 359 2520 359C2464 359 2408 359 2352 359C2296 359 2240 359 2184 359C2128 359 2072 359 2016 359C1960 359 1904 359 1848 359C1792 359 1736 359 1680 359C1624 359 1568 359 1512 359C1456 359 1400 359 1344 359C1288 359 1232 359 1176 359C1120 359 1064 359 1008 359C952 359 896 359 840 359C784 359 728 359 672 359C616 359 560 359 504 359C448 359 392 359 336 359C280 359 224 359 168 359C112 359 56 359 28 359H0V179.5Z;

                M0 71.8L28 77.7459C56 84.1406 112 95.3594 168 95.6959C224 95.3594 280 84.1406 336 77.7459C392 71.8 448 71.8 504 59.7959C560 48.2406 616 23.5594 672 53.85C728 84.1406 784 167.159 840 197.45C896 227.741 952 203.059 1008 197.45C1064 191.841 1120 203.059 1176 173.554C1232 143.6 1288 71.8 1344 47.9041C1400 23.5594 1456 48.2406 1512 95.6959C1568 143.6 1624 215.4 1680 251.3C1736 287.2 1792 287.2 1848 281.254C1904 274.859 1960 263.641 2016 233.35C2072 203.059 2128 155.941 2184 167.496C2240 179.5 2296 251.3 2352 251.3C2408 251.3 2464 179.5 2520 137.654C2576 95.3594 2632 84.1406 2688 77.7459C2744 71.8 2800 71.8 2856 59.7959C2912 48.2406 2968 23.5594 3024 47.9041C3080 71.8 3136 143.6 3192 143.6C3248 143.6 3304 71.8 3360 35.9C3416 5.09998e-06 3472 5.09998e-06 3528 12.0041C3584 23.5594 3640 48.2406 3696 89.75C3752 131.259 3808 191.841 3864 197.45C3920 203.059 3976 155.941 4004 131.596L4032 107.7V359H4004C3976 359 3920 359 3864 359C3808 359 3752 359 3696 359C3640 359 3584 359 3528 359C3472 359 3416 359 3360 359C3304 359 3248 359 3192 359C3136 359 3080 359 3024 359C2968 359 2912 359 2856 359C2800 359 2744 359 2688 359C2632 359 2576 359 2520 359C2464 359 2408 359 2352 359C2296 359 2240 359 2184 359C2128 359 2072 359 2016 359C1960 359 1904 359 1848 359C1792 359 1736 359 1680 359C1624 359 1568 359 1512 359C1456 359 1400 359 1344 359C1288 359 1232 359 1176 359C1120 359 1064 359 1008 359C952 359 896 359 840 359C784 359 728 359 672 359C616 359 560 359 504 359C448 359 392 359 336 359C280 359 224 359 168 359C112 359 56 359 28 359H0V71.8Z;

                M0 71.8L28 101.754C56 131.259 112 191.841 168 197.45C224 203.059 280 155.941 336 131.596C392 107.7 448 107.7 504 125.65C560 143.6 616 179.5 672 167.496C728 155.941 784 95.3594 840 71.8C896 48.2406 952 59.4594 1008 71.8C1064 84.1406 1120 95.3594 1176 131.596C1232 167.159 1288 227.741 1344 251.3C1400 274.859 1456 263.641 1512 263.304C1568 263.641 1624 274.859 1680 281.254C1736 287.2 1792 287.2 1848 251.3C1904 215.4 1960 143.6 2016 107.7C2072 71.8 2128 71.8 2184 89.75C2240 107.7 2296 143.6 2352 149.546C2408 155.941 2464 131.259 2520 125.65C2576 120.041 2632 131.259 2688 161.55C2744 191.841 2800 238.959 2856 215.4C2912 191.841 2968 95.3594 3024 95.696C3080 95.3594 3136 191.841 3192 197.45C3248 203.059 3304 120.041 3360 89.75C3416 59.4594 3472 84.1406 3528 107.7C3584 131.259 3640 155.941 3696 149.546C3752 143.6 3808 107.7 3864 107.7C3920 107.7 3976 143.6 4004 161.55L4032 179.5V359H4004C3976 359 3920 359 3864 359C3808 359 3752 359 3696 359C3640 359 3584 359 3528 359C3472 359 3416 359 3360 359C3304 359 3248 359 3192 359C3136 359 3080 359 3024 359C2968 359 2912 359 2856 359C2800 359 2744 359 2688 359C2632 359 2576 359 2520 359C2464 359 2408 359 2352 359C2296 359 2240 359 2184 359C2128 359 2072 359 2016 359C1960 359 1904 359 1848 359C1792 359 1736 359 1680 359C1624 359 1568 359 1512 359C1456 359 1400 359 1344 359C1288 359 1232 359 1176 359C1120 359 1064 359 1008 359C952 359 896 359 840 359C784 359 728 359 672 359C616 359 560 359 504 359C448 359 392 359 336 359C280 359 224 359 168 359C112 359 56 359 28 359H0V71.8Z;
                
                M0 179.5L28 155.604C56 131.259 112 84.1406 168 101.754C224 120.041 280 203.059 336 221.346C392 238.959 448 191.841 504 191.504C560 191.841 616 238.959 672 245.354C728 251.3 784 215.4 840 209.454C896 203.059 952 227.741 1008 209.454C1064 191.841 1120 131.259 1176 89.75C1232 48.2406 1288 23.5594 1344 53.85C1400 84.1406 1456 167.159 1512 191.504C1568 215.4 1624 179.5 1680 143.6C1736 107.7 1792 71.8 1848 95.6959C1904 120.041 1960 203.059 2016 227.404C2072 251.3 2128 215.4 2184 191.504C2240 167.159 2296 155.941 2352 137.654C2408 120.041 2464 95.3594 2520 107.7C2576 120.041 2632 167.159 2688 185.446C2744 203.059 2800 191.841 2856 185.446C2912 179.5 2968 179.5 3024 149.546C3080 120.041 3136 59.4594 3192 59.7959C3248 59.4594 3304 120.041 3360 131.596C3416 143.6 3472 107.7 3528 107.7C3584 107.7 3640 143.6 3696 155.604C3752 167.159 3808 155.941 3864 173.554C3920 191.841 3976 238.959 4004 263.304L4032 287.2V359H4004C3976 359 3920 359 3864 359C3808 359 3752 359 3696 359C3640 359 3584 359 3528 359C3472 359 3416 359 3360 359C3304 359 3248 359 3192 359C3136 359 3080 359 3024 359C2968 359 2912 359 2856 359C2800 359 2744 359 2688 359C2632 359 2576 359 2520 359C2464 359 2408 359 2352 359C2296 359 2240 359 2184 359C2128 359 2072 359 2016 359C1960 359 1904 359 1848 359C1792 359 1736 359 1680 359C1624 359 1568 359 1512 359C1456 359 1400 359 1344 359C1288 359 1232 359 1176 359C1120 359 1064 359 1008 359C952 359 896 359 840 359C784 359 728 359 672 359C616 359 560 359 504 359C448 359 392 359 336 359C280 359 224 359 168 359C112 359 56 359 28 359H0V179.5Z;"
          />
        </path>
        <path
          id="Vector_2"
          d="M0 107.7L28 137.654C56 167.159 112 227.741 168 221.346C224 215.4 280 143.6 336 131.596C392 120.041 448 167.159 504 191.504C560 215.4 616 215.4 672 185.446C728 155.941 784 95.3594 840 89.75C896 84.1406 952 131.259 1008 149.546C1064 167.159 1120 155.941 1176 161.55C1232 167.159 1288 191.841 1344 197.45C1400 203.059 1456 191.841 1512 203.396C1568 215.4 1624 251.3 1680 245.354C1736 238.959 1792 191.841 1848 173.554C1904 155.941 1960 167.159 2016 191.504C2072 215.4 2128 251.3 2184 221.346C2240 191.841 2296 95.3594 2352 89.75C2408 84.1406 2464 167.159 2520 209.454C2576 251.3 2632 251.3 2688 251.3C2744 251.3 2800 251.3 2856 227.404C2912 203.059 2968 155.941 3024 149.546C3080 143.6 3136 179.5 3192 185.446C3248 191.841 3304 167.159 3360 185.446C3416 203.059 3472 263.641 3528 257.246C3584 251.3 3640 179.5 3696 149.546C3752 120.041 3808 131.259 3864 143.6C3920 155.941 3976 167.159 4004 173.554L4032 179.5V359H4004C3976 359 3920 359 3864 359C3808 359 3752 359 3696 359C3640 359 3584 359 3528 359C3472 359 3416 359 3360 359C3304 359 3248 359 3192 359C3136 359 3080 359 3024 359C2968 359 2912 359 2856 359C2800 359 2744 359 2688 359C2632 359 2576 359 2520 359C2464 359 2408 359 2352 359C2296 359 2240 359 2184 359C2128 359 2072 359 2016 359C1960 359 1904 359 1848 359C1792 359 1736 359 1680 359C1624 359 1568 359 1512 359C1456 359 1400 359 1344 359C1288 359 1232 359 1176 359C1120 359 1064 359 1008 359C952 359 896 359 840 359C784 359 728 359 672 359C616 359 560 359 504 359C448 359 392 359 336 359C280 359 224 359 168 359C112 359 56 359 28 359H0V107.7Z"
          fill="#020D73" opacity="0.7">
          <animate
            repeatCount="indefinite"
            attributeName="d"
            dur="12s"
            values="
            M0 107.7L28 137.654C56 167.159 112 227.741 168 221.346C224 215.4 280 143.6 336 131.596C392 120.041 448 167.159 504 191.504C560 215.4 616 215.4 672 185.446C728 155.941 784 95.3594 840 89.75C896 84.1406 952 131.259 1008 149.546C1064 167.159 1120 155.941 1176 161.55C1232 167.159 1288 191.841 1344 197.45C1400 203.059 1456 191.841 1512 203.396C1568 215.4 1624 251.3 1680 245.354C1736 238.959 1792 191.841 1848 173.554C1904 155.941 1960 167.159 2016 191.504C2072 215.4 2128 251.3 2184 221.346C2240 191.841 2296 95.3594 2352 89.75C2408 84.1406 2464 167.159 2520 209.454C2576 251.3 2632 251.3 2688 251.3C2744 251.3 2800 251.3 2856 227.404C2912 203.059 2968 155.941 3024 149.546C3080 143.6 3136 179.5 3192 185.446C3248 191.841 3304 167.159 3360 185.446C3416 203.059 3472 263.641 3528 257.246C3584 251.3 3640 179.5 3696 149.546C3752 120.041 3808 131.259 3864 143.6C3920 155.941 3976 167.159 4004 173.554L4032 179.5V359H4004C3976 359 3920 359 3864 359C3808 359 3752 359 3696 359C3640 359 3584 359 3528 359C3472 359 3416 359 3360 359C3304 359 3248 359 3192 359C3136 359 3080 359 3024 359C2968 359 2912 359 2856 359C2800 359 2744 359 2688 359C2632 359 2576 359 2520 359C2464 359 2408 359 2352 359C2296 359 2240 359 2184 359C2128 359 2072 359 2016 359C1960 359 1904 359 1848 359C1792 359 1736 359 1680 359C1624 359 1568 359 1512 359C1456 359 1400 359 1344 359C1288 359 1232 359 1176 359C1120 359 1064 359 1008 359C952 359 896 359 840 359C784 359 728 359 672 359C616 359 560 359 504 359C448 359 392 359 336 359C280 359 224 359 168 359C112 359 56 359 28 359H0V107.7Z;

            M0 323.1L28 269.25C56 215.4 112 107.7 168 107.7C224 107.7 280 215.4 336 269.25C392 323.1 448 323.1 504 299.204C560 274.859 616 227.741 672 185.446C728 143.6 784 107.7 840 101.754C896 95.3594 952 120.041 1008 107.7C1064 95.3594 1120 48.2406 1176 71.8C1232 95.3594 1288 191.841 1344 239.296C1400 287.2 1456 287.2 1512 263.304C1568 238.959 1624 191.841 1680 185.446C1736 179.5 1792 215.4 1848 191.504C1904 167.159 1960 84.1406 2016 95.6959C2072 107.7 2128 215.4 2184 239.296C2240 263.641 2296 203.059 2352 173.554C2408 143.6 2464 143.6 2520 155.604C2576 167.159 2632 191.841 2688 179.5C2744 167.159 2800 120.041 2856 113.646C2912 107.7 2968 143.6 3024 155.604C3080 167.159 3136 155.941 3192 155.604C3248 155.941 3304 167.159 3360 167.496C3416 167.159 3472 155.941 3528 161.55C3584 167.159 3640 191.841 3696 203.396C3752 215.4 3808 215.4 3864 185.446C3920 155.941 3976 95.3594 4004 65.8541L4032 35.9V359H4004C3976 359 3920 359 3864 359C3808 359 3752 359 3696 359C3640 359 3584 359 3528 359C3472 359 3416 359 3360 359C3304 359 3248 359 3192 359C3136 359 3080 359 3024 359C2968 359 2912 359 2856 359C2800 359 2744 359 2688 359C2632 359 2576 359 2520 359C2464 359 2408 359 2352 359C2296 359 2240 359 2184 359C2128 359 2072 359 2016 359C1960 359 1904 359 1848 359C1792 359 1736 359 1680 359C1624 359 1568 359 1512 359C1456 359 1400 359 1344 359C1288 359 1232 359 1176 359C1120 359 1064 359 1008 359C952 359 896 359 840 359C784 359 728 359 672 359C616 359 560 359 504 359C448 359 392 359 336 359C280 359 224 359 168 359C112 359 56 359 28 359H0V323.1Z;

            M0 179.5L28 173.554C56 167.159 112 155.941 168 179.5C224 203.059 280 263.641 336 293.146C392 323.1 448 323.1 504 275.196C560 227.741 616 131.259 672 77.7459C728 23.5594 784 12.3406 840 59.7959C896 107.7 952 215.4 1008 221.346C1064 227.741 1120 131.259 1176 125.65C1232 120.041 1288 203.059 1344 245.354C1400 287.2 1456 287.2 1512 293.146C1568 299.541 1624 310.759 1680 293.146C1736 274.859 1792 227.741 1848 197.45C1904 167.159 1960 155.941 2016 131.596C2072 107.7 2128 71.8 2184 89.75C2240 107.7 2296 179.5 2352 215.4C2408 251.3 2464 251.3 2520 257.246C2576 263.641 2632 274.859 2688 233.35C2744 191.841 2800 95.3594 2856 65.8541C2912 35.9 2968 71.8 3024 71.8C3080 71.8 3136 35.9 3192 41.8459C3248 48.2406 3304 95.3594 3360 101.754C3416 107.7 3472 71.8 3528 89.75C3584 107.7 3640 179.5 3696 185.446C3752 191.841 3808 131.259 3864 113.646C3920 95.3594 3976 120.041 4004 131.596L4032 143.6V359H4004C3976 359 3920 359 3864 359C3808 359 3752 359 3696 359C3640 359 3584 359 3528 359C3472 359 3416 359 3360 359C3304 359 3248 359 3192 359C3136 359 3080 359 3024 359C2968 359 2912 359 2856 359C2800 359 2744 359 2688 359C2632 359 2576 359 2520 359C2464 359 2408 359 2352 359C2296 359 2240 359 2184 359C2128 359 2072 359 2016 359C1960 359 1904 359 1848 359C1792 359 1736 359 1680 359C1624 359 1568 359 1512 359C1456 359 1400 359 1344 359C1288 359 1232 359 1176 359C1120 359 1064 359 1008 359C952 359 896 359 840 359C784 359 728 359 672 359C616 359 560 359 504 359C448 359 392 359 336 359C280 359 224 359 168 359C112 359 56 359 28 359H0V179.5Z;

            M0 107.7L28 137.654C56 167.159 112 227.741 168 221.346C224 215.4 280 143.6 336 131.596C392 120.041 448 167.159 504 191.504C560 215.4 616 215.4 672 185.446C728 155.941 784 95.3594 840 89.75C896 84.1406 952 131.259 1008 149.546C1064 167.159 1120 155.941 1176 161.55C1232 167.159 1288 191.841 1344 197.45C1400 203.059 1456 191.841 1512 203.396C1568 215.4 1624 251.3 1680 245.354C1736 238.959 1792 191.841 1848 173.554C1904 155.941 1960 167.159 2016 191.504C2072 215.4 2128 251.3 2184 221.346C2240 191.841 2296 95.3594 2352 89.75C2408 84.1406 2464 167.159 2520 209.454C2576 251.3 2632 251.3 2688 251.3C2744 251.3 2800 251.3 2856 227.404C2912 203.059 2968 155.941 3024 149.546C3080 143.6 3136 179.5 3192 185.446C3248 191.841 3304 167.159 3360 185.446C3416 203.059 3472 263.641 3528 257.246C3584 251.3 3640 179.5 3696 149.546C3752 120.041 3808 131.259 3864 143.6C3920 155.941 3976 167.159 4004 173.554L4032 179.5V359H4004C3976 359 3920 359 3864 359C3808 359 3752 359 3696 359C3640 359 3584 359 3528 359C3472 359 3416 359 3360 359C3304 359 3248 359 3192 359C3136 359 3080 359 3024 359C2968 359 2912 359 2856 359C2800 359 2744 359 2688 359C2632 359 2576 359 2520 359C2464 359 2408 359 2352 359C2296 359 2240 359 2184 359C2128 359 2072 359 2016 359C1960 359 1904 359 1848 359C1792 359 1736 359 1680 359C1624 359 1568 359 1512 359C1456 359 1400 359 1344 359C1288 359 1232 359 1176 359C1120 359 1064 359 1008 359C952 359 896 359 840 359C784 359 728 359 672 359C616 359 560 359 504 359C448 359 392 359 336 359C280 359 224 359 168 359C112 359 56 359 28 359H0V107.7Z;"
          />
        </path>

        <path
          id="Vector_3"
          d="M0 323.1L28 317.154C56 310.759 112 299.541 168 287.2C224 274.859 280 263.641 336 239.296C392 215.4 448 179.5 504 173.554C560 167.159 616 191.841 672 179.5C728 167.159 784 120.041 840 137.654C896 155.941 952 238.959 1008 281.254C1064 323.1 1120 323.1 1176 275.196C1232 227.741 1288 131.259 1344 119.704C1400 107.7 1456 179.5 1512 221.346C1568 263.641 1624 274.859 1680 245.354C1736 215.4 1792 143.6 1848 149.546C1904 155.941 1960 238.959 2016 227.404C2072 215.4 2128 107.7 2184 95.6959C2240 84.1406 2296 167.159 2352 179.5C2408 191.841 2464 131.259 2520 89.75C2576 48.2406 2632 23.5594 2688 65.8541C2744 107.7 2800 215.4 2856 227.404C2912 238.959 2968 155.941 3024 119.704C3080 84.1406 3136 95.3594 3192 131.596C3248 167.159 3304 227.741 3360 257.246C3416 287.2 3472 287.2 3528 251.3C3584 215.4 3640 143.6 3696 119.704C3752 95.3594 3808 120.041 3864 107.7C3920 95.3594 3976 48.2406 4004 23.8959L4032 0V359H4004C3976 359 3920 359 3864 359C3808 359 3752 359 3696 359C3640 359 3584 359 3528 359C3472 359 3416 359 3360 359C3304 359 3248 359 3192 359C3136 359 3080 359 3024 359C2968 359 2912 359 2856 359C2800 359 2744 359 2688 359C2632 359 2576 359 2520 359C2464 359 2408 359 2352 359C2296 359 2240 359 2184 359C2128 359 2072 359 2016 359C1960 359 1904 359 1848 359C1792 359 1736 359 1680 359C1624 359 1568 359 1512 359C1456 359 1400 359 1344 359C1288 359 1232 359 1176 359C1120 359 1064 359 1008 359C952 359 896 359 840 359C784 359 728 359 672 359C616 359 560 359 504 359C448 359 392 359 336 359C280 359 224 359 168 359C112 359 56 359 28 359H0V323.1Z"
          fill="#020D73" opacity="0.7">
          <animate
            repeatCount="indefinite"
            attributeName="d"
            dur="6s"
            values="M0 323.1L28 317.154C56 310.759 112 299.541 168 287.2C224 274.859 280 263.641 336 239.296C392 215.4 448 179.5 504 173.554C560 167.159 616 191.841 672 179.5C728 167.159 784 120.041 840 137.654C896 155.941 952 238.959 1008 281.254C1064 323.1 1120 323.1 1176 275.196C1232 227.741 1288 131.259 1344 119.704C1400 107.7 1456 179.5 1512 221.346C1568 263.641 1624 274.859 1680 245.354C1736 215.4 1792 143.6 1848 149.546C1904 155.941 1960 238.959 2016 227.404C2072 215.4 2128 107.7 2184 95.6959C2240 84.1406 2296 167.159 2352 179.5C2408 191.841 2464 131.259 2520 89.75C2576 48.2406 2632 23.5594 2688 65.8541C2744 107.7 2800 215.4 2856 227.404C2912 238.959 2968 155.941 3024 119.704C3080 84.1406 3136 95.3594 3192 131.596C3248 167.159 3304 227.741 3360 257.246C3416 287.2 3472 287.2 3528 251.3C3584 215.4 3640 143.6 3696 119.704C3752 95.3594 3808 120.041 3864 107.7C3920 95.3594 3976 48.2406 4004 23.8959L4032 0V359H4004C3976 359 3920 359 3864 359C3808 359 3752 359 3696 359C3640 359 3584 359 3528 359C3472 359 3416 359 3360 359C3304 359 3248 359 3192 359C3136 359 3080 359 3024 359C2968 359 2912 359 2856 359C2800 359 2744 359 2688 359C2632 359 2576 359 2520 359C2464 359 2408 359 2352 359C2296 359 2240 359 2184 359C2128 359 2072 359 2016 359C1960 359 1904 359 1848 359C1792 359 1736 359 1680 359C1624 359 1568 359 1512 359C1456 359 1400 359 1344 359C1288 359 1232 359 1176 359C1120 359 1064 359 1008 359C952 359 896 359 840 359C784 359 728 359 672 359C616 359 560 359 504 359C448 359 392 359 336 359C280 359 224 359 168 359C112 359 56 359 28 359H0V323.1Z;
M0 35.9L28 29.9541C56 23.5594 112 12.3406 168 59.7959C224 107.7 280 215.4 336 221.346C392 227.741 448 131.259 504 119.704C560 107.7 616 179.5 672 221.346C728 263.641 784 274.859 840 245.354C896 215.4 952 143.6 1008 131.596C1064 120.041 1120 167.159 1176 203.396C1232 238.959 1288 263.641 1344 269.25C1400 274.859 1456 263.641 1512 257.246C1568 251.3 1624 251.3 1680 233.35C1736 215.4 1792 179.5 1848 161.55C1904 143.6 1960 143.6 2016 143.6C2072 143.6 2128 143.6 2184 155.604C2240 167.159 2296 191.841 2352 191.504C2408 191.841 2464 167.159 2520 137.654C2576 107.7 2632 71.8 2688 65.8541C2744 59.4594 2800 84.1406 2856 89.75C2912 95.3594 2968 84.1406 3024 77.7459C3080 71.8 3136 71.8 3192 107.7C3248 143.6 3304 215.4 3360 239.296C3416 263.641 3472 238.959 3528 191.504C3584 143.6 3640 71.8 3696 47.9041C3752 23.5594 3808 48.2406 3864 95.6959C3920 143.6 3976 215.4 4004 251.3L4032 287.2V359H4004C3976 359 3920 359 3864 359C3808 359 3752 359 3696 359C3640 359 3584 359 3528 359C3472 359 3416 359 3360 359C3304 359 3248 359 3192 359C3136 359 3080 359 3024 359C2968 359 2912 359 2856 359C2800 359 2744 359 2688 359C2632 359 2576 359 2520 359C2464 359 2408 359 2352 359C2296 359 2240 359 2184 359C2128 359 2072 359 2016 359C1960 359 1904 359 1848 359C1792 359 1736 359 1680 359C1624 359 1568 359 1512 359C1456 359 1400 359 1344 359C1288 359 1232 359 1176 359C1120 359 1064 359 1008 359C952 359 896 359 840 359C784 359 728 359 672 359C616 359 560 359 504 359C448 359 392 359 336 359C280 359 224 359 168 359C112 359 56 359 28 359H0V35.9Z;

M0 323.1L28 287.2C56 251.3 112 179.5 168 167.496C224 155.941 280 203.059 336 197.45C392 191.841 448 131.259 504 101.754C560 71.8 616 71.8 672 77.7459C728 84.1406 784 95.3594 840 107.7C896 120.041 952 131.259 1008 167.496C1064 203.059 1120 263.641 1176 239.296C1232 215.4 1288 107.7 1344 107.7C1400 107.7 1456 215.4 1512 269.25C1568 323.1 1624 323.1 1680 281.254C1736 238.959 1792 155.941 1848 101.754C1904 48.2406 1960 23.5594 2016 12.0041C2072 0 2128 0 2184 0C2240 0 2296 0 2352 5.94594C2408 12.3406 2464 23.5594 2520 47.9041C2576 71.8 2632 107.7 2688 125.65C2744 143.6 2800 143.6 2856 173.554C2912 203.059 2968 263.641 3024 275.196C3080 287.2 3136 251.3 3192 245.354C3248 238.959 3304 263.641 3360 233.35C3416 203.059 3472 120.041 3528 95.6959C3584 71.8 3640 107.7 3696 107.7C3752 107.7 3808 71.8 3864 47.9041C3920 23.5594 3976 12.3406 4004 5.94594L4032 0V359H4004C3976 359 3920 359 3864 359C3808 359 3752 359 3696 359C3640 359 3584 359 3528 359C3472 359 3416 359 3360 359C3304 359 3248 359 3192 359C3136 359 3080 359 3024 359C2968 359 2912 359 2856 359C2800 359 2744 359 2688 359C2632 359 2576 359 2520 359C2464 359 2408 359 2352 359C2296 359 2240 359 2184 359C2128 359 2072 359 2016 359C1960 359 1904 359 1848 359C1792 359 1736 359 1680 359C1624 359 1568 359 1512 359C1456 359 1400 359 1344 359C1288 359 1232 359 1176 359C1120 359 1064 359 1008 359C952 359 896 359 840 359C784 359 728 359 672 359C616 359 560 359 504 359C448 359 392 359 336 359C280 359 224 359 168 359C112 359 56 359 28 359H0V323.1Z;

            
            M0 323.1L28 317.154C56 310.759 112 299.541 168 287.2C224 274.859 280 263.641 336 239.296C392 215.4 448 179.5 504 173.554C560 167.159 616 191.841 672 179.5C728 167.159 784 120.041 840 137.654C896 155.941 952 238.959 1008 281.254C1064 323.1 1120 323.1 1176 275.196C1232 227.741 1288 131.259 1344 119.704C1400 107.7 1456 179.5 1512 221.346C1568 263.641 1624 274.859 1680 245.354C1736 215.4 1792 143.6 1848 149.546C1904 155.941 1960 238.959 2016 227.404C2072 215.4 2128 107.7 2184 95.6959C2240 84.1406 2296 167.159 2352 179.5C2408 191.841 2464 131.259 2520 89.75C2576 48.2406 2632 23.5594 2688 65.8541C2744 107.7 2800 215.4 2856 227.404C2912 238.959 2968 155.941 3024 119.704C3080 84.1406 3136 95.3594 3192 131.596C3248 167.159 3304 227.741 3360 257.246C3416 287.2 3472 287.2 3528 251.3C3584 215.4 3640 143.6 3696 119.704C3752 95.3594 3808 120.041 3864 107.7C3920 95.3594 3976 48.2406 4004 23.8959L4032 0V359H4004C3976 359 3920 359 3864 359C3808 359 3752 359 3696 359C3640 359 3584 359 3528 359C3472 359 3416 359 3360 359C3304 359 3248 359 3192 359C3136 359 3080 359 3024 359C2968 359 2912 359 2856 359C2800 359 2744 359 2688 359C2632 359 2576 359 2520 359C2464 359 2408 359 2352 359C2296 359 2240 359 2184 359C2128 359 2072 359 2016 359C1960 359 1904 359 1848 359C1792 359 1736 359 1680 359C1624 359 1568 359 1512 359C1456 359 1400 359 1344 359C1288 359 1232 359 1176 359C1120 359 1064 359 1008 359C952 359 896 359 840 359C784 359 728 359 672 359C616 359 560 359 504 359C448 359 392 359 336 359C280 359 224 359 168 359C112 359 56 359 28 359H0V323.1Z;"
          />
        </path>
        <path
          id="Vector_4"
          d="M0 143.6L28 119.704C56 95.3594 112 48.2406 168 35.9C224 23.5594 280 48.2406 336 59.7959C392 71.8 448 71.8 504 107.7C560 143.6 616 215.4 672 257.246C728 299.541 784 310.759 840 287.2C896 263.641 952 203.059 1008 173.554C1064 143.6 1120 143.6 1176 143.6C1232 143.6 1288 143.6 1344 155.604C1400 167.159 1456 191.841 1512 215.4C1568 238.959 1624 263.641 1680 227.404C1736 191.841 1792 95.3594 1848 65.8541C1904 35.9 1960 71.8 2016 83.8041C2072 95.3594 2128 84.1406 2184 71.8C2240 59.4594 2296 48.2406 2352 71.8C2408 95.3594 2464 155.941 2520 161.55C2576 167.159 2632 120.041 2688 95.6959C2744 71.8 2800 71.8 2856 59.7959C2912 48.2406 2968 23.5594 3024 47.9041C3080 71.8 3136 143.6 3192 173.554C3248 203.059 3304 191.841 3360 197.45C3416 203.059 3472 227.741 3528 215.4C3584 203.059 3640 155.941 3696 119.704C3752 84.1406 3808 59.4594 3864 65.8541C3920 71.8 3976 107.7 4004 125.65L4032 143.6V359H4004C3976 359 3920 359 3864 359C3808 359 3752 359 3696 359C3640 359 3584 359 3528 359C3472 359 3416 359 3360 359C3304 359 3248 359 3192 359C3136 359 3080 359 3024 359C2968 359 2912 359 2856 359C2800 359 2744 359 2688 359C2632 359 2576 359 2520 359C2464 359 2408 359 2352 359C2296 359 2240 359 2184 359C2128 359 2072 359 2016 359C1960 359 1904 359 1848 359C1792 359 1736 359 1680 359C1624 359 1568 359 1512 359C1456 359 1400 359 1344 359C1288 359 1232 359 1176 359C1120 359 1064 359 1008 359C952 359 896 359 840 359C784 359 728 359 672 359C616 359 560 359 504 359C448 359 392 359 336 359C280 359 224 359 168 359C112 359 56 359 28 359H0V143.6Z"
          fill="#430087" opacity="0.7">
          <animate
            repeatCount="indefinite"
            attributeName="d"
            dur="12s"
            values="M0 143.6L28 119.704C56 95.3594 112 48.2406 168 35.9C224 23.5594 280 48.2406 336 59.7959C392 71.8 448 71.8 504 107.7C560 143.6 616 215.4 672 257.246C728 299.541 784 310.759 840 287.2C896 263.641 952 203.059 1008 173.554C1064 143.6 1120 143.6 1176 143.6C1232 143.6 1288 143.6 1344 155.604C1400 167.159 1456 191.841 1512 215.4C1568 238.959 1624 263.641 1680 227.404C1736 191.841 1792 95.3594 1848 65.8541C1904 35.9 1960 71.8 2016 83.8041C2072 95.3594 2128 84.1406 2184 71.8C2240 59.4594 2296 48.2406 2352 71.8C2408 95.3594 2464 155.941 2520 161.55C2576 167.159 2632 120.041 2688 95.6959C2744 71.8 2800 71.8 2856 59.7959C2912 48.2406 2968 23.5594 3024 47.9041C3080 71.8 3136 143.6 3192 173.554C3248 203.059 3304 191.841 3360 197.45C3416 203.059 3472 227.741 3528 215.4C3584 203.059 3640 155.941 3696 119.704C3752 84.1406 3808 59.4594 3864 65.8541C3920 71.8 3976 107.7 4004 125.65L4032 143.6V359H4004C3976 359 3920 359 3864 359C3808 359 3752 359 3696 359C3640 359 3584 359 3528 359C3472 359 3416 359 3360 359C3304 359 3248 359 3192 359C3136 359 3080 359 3024 359C2968 359 2912 359 2856 359C2800 359 2744 359 2688 359C2632 359 2576 359 2520 359C2464 359 2408 359 2352 359C2296 359 2240 359 2184 359C2128 359 2072 359 2016 359C1960 359 1904 359 1848 359C1792 359 1736 359 1680 359C1624 359 1568 359 1512 359C1456 359 1400 359 1344 359C1288 359 1232 359 1176 359C1120 359 1064 359 1008 359C952 359 896 359 840 359C784 359 728 359 672 359C616 359 560 359 504 359C448 359 392 359 336 359C280 359 224 359 168 359C112 359 56 359 28 359H0V143.6Z;
            
            M0 35.9L28 29.9541C56 23.5594 112 12.3406 168 17.95C224 23.5594 280 48.2406 336 95.6959C392 143.6 448 215.4 504 239.296C560 263.641 616 238.959 672 239.296C728 238.959 784 263.641 840 263.304C896 263.641 952 238.959 1008 209.454C1064 179.5 1120 143.6 1176 107.7C1232 71.8 1288 35.9 1344 71.8C1400 107.7 1456 215.4 1512 257.246C1568 299.541 1624 274.859 1680 263.304C1736 251.3 1792 251.3 1848 239.296C1904 227.741 1960 203.059 2016 179.5C2072 155.941 2128 131.259 2184 131.596C2240 131.259 2296 155.941 2352 191.504C2408 227.741 2464 274.859 2520 299.204C2576 323.1 2632 323.1 2688 293.146C2744 263.641 2800 203.059 2856 191.504C2912 179.5 2968 215.4 3024 197.45C3080 179.5 3136 107.7 3192 71.8C3248 35.9 3304 35.9 3360 83.8041C3416 131.259 3472 227.741 3528 269.25C3584 310.759 3640 299.541 3696 299.204C3752 299.541 3808 310.759 3864 275.196C3920 238.959 3976 155.941 4004 113.646L4032 71.8V359H4004C3976 359 3920 359 3864 359C3808 359 3752 359 3696 359C3640 359 3584 359 3528 359C3472 359 3416 359 3360 359C3304 359 3248 359 3192 359C3136 359 3080 359 3024 359C2968 359 2912 359 2856 359C2800 359 2744 359 2688 359C2632 359 2576 359 2520 359C2464 359 2408 359 2352 359C2296 359 2240 359 2184 359C2128 359 2072 359 2016 359C1960 359 1904 359 1848 359C1792 359 1736 359 1680 359C1624 359 1568 359 1512 359C1456 359 1400 359 1344 359C1288 359 1232 359 1176 359C1120 359 1064 359 1008 359C952 359 896 359 840 359C784 359 728 359 672 359C616 359 560 359 504 359C448 359 392 359 336 359C280 359 224 359 168 359C112 359 56 359 28 359H0V35.9Z;

            M0 71.8L28 107.7C56 143.6 112 215.4 168 239.296C224 263.641 280 238.959 336 233.35C392 227.741 448 238.959 504 215.4C560 191.841 616 131.259 672 101.754C728 71.8 784 71.8 840 59.7959C896 48.2406 952 23.5594 1008 59.7959C1064 95.3594 1120 191.841 1176 209.454C1232 227.741 1288 167.159 1344 143.6C1400 120.041 1456 131.259 1512 131.596C1568 131.259 1624 120.041 1680 119.704C1736 120.041 1792 131.259 1848 113.646C1904 95.3594 1960 48.2406 2016 53.85C2072 59.4594 2128 120.041 2184 119.704C2240 120.041 2296 59.4594 2352 77.7459C2408 95.3594 2464 191.841 2520 239.296C2576 287.2 2632 287.2 2688 263.304C2744 238.959 2800 191.841 2856 161.55C2912 131.259 2968 120.041 3024 125.65C3080 131.259 3136 155.941 3192 179.5C3248 203.059 3304 227.741 3360 215.4C3416 203.059 3472 155.941 3528 161.55C3584 167.159 3640 227.741 3696 221.346C3752 215.4 3808 143.6 3864 95.6959C3920 48.2406 3976 23.5594 4004 12.0041L4032 0V359H4004C3976 359 3920 359 3864 359C3808 359 3752 359 3696 359C3640 359 3584 359 3528 359C3472 359 3416 359 3360 359C3304 359 3248 359 3192 359C3136 359 3080 359 3024 359C2968 359 2912 359 2856 359C2800 359 2744 359 2688 359C2632 359 2576 359 2520 359C2464 359 2408 359 2352 359C2296 359 2240 359 2184 359C2128 359 2072 359 2016 359C1960 359 1904 359 1848 359C1792 359 1736 359 1680 359C1624 359 1568 359 1512 359C1456 359 1400 359 1344 359C1288 359 1232 359 1176 359C1120 359 1064 359 1008 359C952 359 896 359 840 359C784 359 728 359 672 359C616 359 560 359 504 359C448 359 392 359 336 359C280 359 224 359 168 359C112 359 56 359 28 359H0V71.8Z;
            
            M0 143.6L28 119.704C56 95.3594 112 48.2406 168 35.9C224 23.5594 280 48.2406 336 59.7959C392 71.8 448 71.8 504 107.7C560 143.6 616 215.4 672 257.246C728 299.541 784 310.759 840 287.2C896 263.641 952 203.059 1008 173.554C1064 143.6 1120 143.6 1176 143.6C1232 143.6 1288 143.6 1344 155.604C1400 167.159 1456 191.841 1512 215.4C1568 238.959 1624 263.641 1680 227.404C1736 191.841 1792 95.3594 1848 65.8541C1904 35.9 1960 71.8 2016 83.8041C2072 95.3594 2128 84.1406 2184 71.8C2240 59.4594 2296 48.2406 2352 71.8C2408 95.3594 2464 155.941 2520 161.55C2576 167.159 2632 120.041 2688 95.6959C2744 71.8 2800 71.8 2856 59.7959C2912 48.2406 2968 23.5594 3024 47.9041C3080 71.8 3136 143.6 3192 173.554C3248 203.059 3304 191.841 3360 197.45C3416 203.059 3472 227.741 3528 215.4C3584 203.059 3640 155.941 3696 119.704C3752 84.1406 3808 59.4594 3864 65.8541C3920 71.8 3976 107.7 4004 125.65L4032 143.6V359H4004C3976 359 3920 359 3864 359C3808 359 3752 359 3696 359C3640 359 3584 359 3528 359C3472 359 3416 359 3360 359C3304 359 3248 359 3192 359C3136 359 3080 359 3024 359C2968 359 2912 359 2856 359C2800 359 2744 359 2688 359C2632 359 2576 359 2520 359C2464 359 2408 359 2352 359C2296 359 2240 359 2184 359C2128 359 2072 359 2016 359C1960 359 1904 359 1848 359C1792 359 1736 359 1680 359C1624 359 1568 359 1512 359C1456 359 1400 359 1344 359C1288 359 1232 359 1176 359C1120 359 1064 359 1008 359C952 359 896 359 840 359C784 359 728 359 672 359C616 359 560 359 504 359C448 359 392 359 336 359C280 359 224 359 168 359C112 359 56 359 28 359H0V143.6Z;"
          />
        </path>

      </g>

    </svg>